
<svg version="1.0" xmlns="http://www.w3.org/2000/svg"
 width="600pt" height="388pt" viewBox="0 0 600 388"
 preserveAspectRatio="xMidYMid meet">
  <style>
        path {
            fill: black;
            stroke: black;
        }
        @media (prefers-color-scheme: dark) {
            path {
                fill: white;
                stroke: white;
            }
        }
    </style>
      <path
        id="eye-l"
        d="M255.725 113.446C250.711 114.269 246.006 118.229 244.335 122.96C242.329 128.719 243.589 134.35 247.909 138.644C250.943 141.678 254.131 142.989 258.425 142.989C262.513 142.989 265.83 141.6 268.786 138.644C271.82 135.61 273.183 132.344 273.157 128.076C273.132 118.794 264.93 111.904 255.725 113.446Z"
      ></path>
      <path
        id="eye-r"
        d="M340.367 113.318C337.281 113.806 334.427 115.195 332.165 117.277C329.105 120.157 327.691 123.165 327.46 127.305C327.228 131.753 328.642 135.481 331.754 138.618C334.607 141.498 338.181 142.989 342.244 142.989C349.16 142.989 354.997 138.464 356.694 131.804C359.008 122.754 352.477 113.832 343.118 113.318C342.038 113.267 340.804 113.267 340.367 113.318Z"
      ></path>
      <path
        id="upper"
        d="M288.687 0.18805C280.408 0.985102 275.626 1.75644 269.146 3.37626C245.363 9.26415 223.689 23.1997 208.236 42.5603C183.888 73.0283 176.971 113.344 189.724 150.445C193.812 162.375 200.523 174.511 208.313 184.076C212.427 189.141 214.87 192.329 216.798 195.183C225.154 207.524 230.785 221.434 232.996 235.164C234.59 245.243 234.693 256.556 233.253 264.038C232.071 270.183 229.14 277.356 225.643 282.601C217.338 295.123 205.099 303.042 189.955 305.665C185.919 306.359 177.588 306.282 173.243 305.51C165.067 304.07 158.022 301.088 150.977 296.074C148.2 294.12 141.798 287.718 139.844 284.941C134.882 277.973 131.951 271.057 130.408 262.804L129.791 259.59L129.662 173.971C129.534 108.407 129.431 87.8637 129.2 86.2953C127.785 77.0135 124.083 69.6601 117.784 63.6436C112.719 58.8356 106.754 55.596 99.8372 54.0019C96.6747 53.2563 89.5269 53.0506 86.0816 53.5905C72.1975 55.8017 60.8588 65.2378 56.2821 78.402C55.2023 81.4873 54.3795 85.704 54.2767 88.6094L54.1995 90.6663H64.7412H75.2828L75.4628 88.8408C76.0799 82.6186 80.7593 76.9621 86.8529 75.0338C89.2698 74.2624 94.3606 74.2367 96.4947 74.9566C102.743 77.065 106.702 81.5902 108.116 88.2494C108.348 89.2779 108.45 112.649 108.579 175.514L108.708 261.39L109.273 264.732C111.973 281.007 118.915 294.711 130.048 305.87C141.361 317.183 155.322 324.151 171.829 326.696C175.943 327.339 184.787 327.493 189.364 327.005C201.577 325.694 212.684 321.683 222.737 314.946C240.427 303.093 251.791 284.813 254.774 263.472C255.314 259.461 255.519 248.765 255.159 243.263C254.028 226.679 250.017 212.127 242.407 197.111C238.139 188.652 233.151 181.016 227.134 173.74C223.406 169.214 220.963 165.872 218.546 162.041C204.739 139.981 200.934 112.649 208.236 87.5809C210.91 78.2991 214.741 70.1229 220.192 61.9981C231.479 45.1315 248.012 32.4815 267.218 25.9508C273.003 23.9968 278.917 22.6341 285.73 21.7084C290.667 21.0657 308.151 21.0657 313.113 21.7084C325.12 23.3025 335.97 26.7993 346.023 32.2501C362.633 41.2748 375.977 55.0818 384.436 72.0255C388.113 79.4047 390.324 85.5497 392.047 93.2374C394.618 104.73 394.901 118.075 392.792 129.619C391.172 138.541 388.164 147.308 383.973 155.459C380.605 162.015 377.545 166.54 370.835 174.819C364.947 182.096 360.653 188.729 356.282 197.368C348.286 213.207 344.352 228.222 343.555 246.143C342.784 262.778 345.175 274.991 351.628 287.615C360.679 305.279 377.108 318.88 396.006 324.357C403.668 326.594 408.168 327.211 416.858 327.211C423.98 327.211 426.808 326.928 432.285 325.745C448.792 322.197 463.704 312.967 474.272 299.725C481.548 290.623 487.101 278.41 489.107 267.226C490.29 260.541 490.213 265.606 490.367 173.457L490.521 87.0667L491.19 85.344C493.169 80.2532 496.975 76.5765 501.834 75.0338C503.3 74.571 504.225 74.4681 506.848 74.4681C510.396 74.4681 511.579 74.7509 514.587 76.3193C519.215 78.7105 522.557 83.6985 523.175 89.175L523.354 90.7948H533.896H544.464L544.284 88.2751C543.641 78.9933 539.938 70.8685 533.356 64.3121C527.983 58.9642 522.146 55.6988 514.818 54.0019C511.656 53.2563 504.508 53.0506 501.063 53.5905C488.773 55.5446 478.385 63.1808 473.012 74.211C470.852 78.6591 469.798 82.4386 469.309 87.4266C469.155 88.8922 469.052 123.911 469.052 173.971C469.052 244.986 468.975 258.484 468.666 260.773C467.149 272.291 461.827 282.961 453.548 291.163C439.921 304.636 419.789 309.573 401.56 303.968C381.968 297.925 367.698 280.982 365.024 260.644C364.484 256.53 364.638 243.443 365.281 238.635C366.232 231.693 368.135 223.8 370.295 218.04C374.64 206.342 379.834 197.368 388.524 186.544C396.058 177.134 399.631 171.657 403.9 162.941C410.225 150.059 413.901 136.432 415.084 121.546C415.47 116.738 415.238 105.322 414.698 100.565C411.844 76.3965 401.817 54.439 385.439 36.5182C368.932 18.4688 345.998 5.89597 321.932 1.70502C314.27 0.368029 312.47 0.239473 300.771 0.162339C294.703 0.136627 289.253 0.136627 288.687 0.18805Z"
      ></path>
      <path
        id="lower"
        d="M33.3733 161.27C15.4011 163.404 1.43984 178.033 0.179979 196.006L0 198.525H10.5159H21.0576L21.469 196.031C22.086 192.355 23.4487 189.758 26.1484 187.084C29.0795 184.178 31.8049 182.816 35.7902 182.301C42.2952 181.479 49.1087 185.027 52.1169 190.786C54.1224 194.643 53.9167 190.735 54.0967 231.822C54.2509 268.692 54.2767 269.874 55.228 277.254C58.3648 301.705 68.855 325.102 85.1303 343.974C88.627 348.037 95.6719 354.979 99.4515 358.167C116.884 372.72 137.659 382.413 159.616 386.218C167.484 387.581 170.569 387.812 183.219 387.941C195.355 388.069 199.751 387.915 205.974 387.092C226.671 384.418 246.212 376.396 262.899 363.798C267.629 360.224 271.049 357.242 275.703 352.562C284.727 343.486 291.567 334.05 297.557 322.403L300.026 317.595L301.903 321.374C311.39 340.401 325.171 356.059 342.809 367.835C360.422 379.585 379.525 386.167 400.84 387.761C406.625 388.224 427.451 387.967 432.156 387.401C458.33 384.238 480.596 374.725 500.42 358.219C504.405 354.902 512.864 346.443 516.104 342.509C523.354 333.767 528.214 326.208 533.099 316.155C539.99 301.936 543.821 288.001 545.441 271.288C545.672 269.026 545.8 257.147 545.903 231.564L546.058 195.054L546.649 193.383C549.811 184.641 559.273 180.065 567.835 183.176C570.406 184.101 571.846 185.053 574.006 187.212C576.757 190.015 578.145 192.946 578.737 197.291L578.891 198.525H589.458H600L599.82 196.16C598.792 182.661 591.027 171.014 578.994 164.921C576.577 163.712 571.769 162.118 568.812 161.604C565.135 160.91 558.965 160.987 555.237 161.707C548.089 163.147 541.738 166.386 536.622 171.22C530.194 177.339 526.62 184.101 525.103 193.126C524.614 195.954 524.589 197.6 524.589 231.179C524.589 252.313 524.486 267.509 524.331 269.36C523.174 283.013 519.549 296.023 513.533 308.081C511.013 313.069 509.496 315.692 506.436 320.217C490.367 343.923 465.427 360.224 437.427 365.238C429.508 366.652 427.683 366.78 414.544 366.806C401.586 366.806 399.374 366.678 392.561 365.495C361.682 360.121 335.096 340.401 321.083 312.427C315.967 302.219 313.036 292.577 311.262 280.159C310.927 277.871 310.824 273.885 310.747 259.256L310.644 241.206H300H289.355L289.253 259.127C289.15 278.925 289.073 280.107 287.273 288.541C278.891 328.111 246.983 358.81 207.259 365.521C200.189 366.703 198.543 366.806 185.97 366.806C177.691 366.806 173.063 366.703 170.929 366.472C153.342 364.492 137.916 359.067 123.646 349.76C110.276 341.069 98.8858 329.345 90.6839 315.769C82.9705 303.016 78.3425 289.878 76.1313 274.374C75.5914 270.466 75.5656 269.771 75.4114 232.336C75.2314 191.249 75.3085 193.46 73.8944 188.421C70.0634 174.871 58.7247 164.432 44.892 161.758C41.6781 161.141 36.3558 160.91 33.3733 161.27Z"
      ></path>
  </svg>