<?xml version="1.0" standalone="no"?>
<!DOCTYPE svg PUBLIC "-//W3C//DTD SVG 20010904//EN"
 "http://www.w3.org/TR/2001/REC-SVG-20010904/DTD/svg10.dtd">
<svg version="1.0" xmlns="http://www.w3.org/2000/svg"
 width="1200.000000pt" height="1200.000000pt" viewBox="0 0 1200.000000 1200.000000"
 preserveAspectRatio="xMidYMid meet">
<metadata>
Created by potrace 1.14, written by Peter Selinger 2001-2017
</metadata>
<g transform="translate(0.000000,1200.000000) scale(0.100000,-0.100000)"
fill="#000000" stroke="none">
<path d="M5738 9875 c-2 -2 -30 -6 -63 -10 -94 -10 -124 -15 -220 -37 -49 -11
-96 -20 -102 -21 -7 0 -13 -3 -13 -7 0 -3 -9 -6 -21 -7 -34 -3 -141 -39 -191
-64 -10 -5 -24 -9 -31 -9 -35 0 -398 -195 -419 -225 -4 -5 -8 -7 -8 -3 0 7
-25 -11 -55 -39 -8 -7 -18 -13 -23 -13 -6 0 -12 -3 -14 -7 -1 -5 -23 -24 -48
-43 -25 -19 -54 -42 -64 -50 -41 -32 -234 -227 -271 -275 -21 -27 -44 -55 -49
-60 -21 -19 -139 -196 -179 -265 -107 -188 -214 -467 -242 -629 -3 -19 -8 -37
-10 -41 -2 -4 -7 -25 -10 -46 -2 -21 -7 -50 -10 -64 -14 -69 -19 -153 -19
-345 0 -186 4 -255 20 -345 2 -14 7 -43 10 -65 4 -22 17 -80 31 -130 13 -49
25 -97 26 -105 3 -20 26 -90 37 -115 5 -11 19 -47 31 -80 65 -181 232 -456
390 -646 39 -46 113 -149 155 -214 43 -67 163 -300 168 -327 2 -7 8 -24 13
-38 33 -80 79 -232 88 -290 2 -14 6 -41 10 -60 34 -184 38 -499 8 -610 -3 -14
-7 -29 -8 -35 -6 -27 -34 -113 -46 -140 -7 -16 -13 -32 -14 -35 -2 -7 -63
-122 -78 -145 -62 -99 -190 -231 -287 -294 -30 -20 -57 -38 -60 -41 -9 -10
-123 -62 -190 -86 -112 -40 -215 -56 -350 -56 -62 0 -179 10 -189 16 -4 3 -21
8 -37 10 -60 11 -71 15 -139 42 -67 27 -174 81 -185 93 -3 3 -18 13 -35 21
-46 23 -228 208 -273 278 -78 121 -141 275 -167 412 -3 19 -8 751 -10 1625 -4
1542 -8 1902 -19 1955 -3 14 -15 53 -26 85 -12 33 -26 75 -32 93 -6 17 -15 32
-20 32 -4 0 -8 5 -8 11 0 18 -62 101 -119 159 -118 120 -285 204 -431 217
-111 11 -270 4 -270 -11 0 -5 -3 -7 -6 -3 -13 12 -167 -52 -249 -105 -70 -44
-214 -195 -215 -225 0 -6 -4 -13 -8 -15 -7 -3 -51 -87 -59 -113 -34 -113 -59
-264 -44 -266 24 -4 405 -3 411 1 4 3 10 23 12 45 11 93 88 199 178 245 54 28
168 37 239 20 28 -6 51 -16 51 -21 0 -5 7 -9 15 -9 8 0 37 -22 64 -48 52 -51
101 -142 102 -189 0 -16 2 -221 4 -458 2 -236 5 -1006 6 -1710 2 -1264 4
-1328 34 -1452 3 -13 7 -31 9 -41 22 -98 81 -251 134 -350 62 -115 141 -223
241 -327 44 -45 70 -68 165 -145 17 -14 33 -28 34 -32 2 -5 8 -8 14 -8 5 0 29
-13 53 -30 24 -16 47 -30 50 -30 4 0 19 -8 33 -18 35 -25 181 -86 262 -111
159 -49 284 -67 445 -65 99 1 232 11 244 19 4 2 27 6 51 10 183 27 465 163
635 305 40 33 163 157 197 197 39 46 138 191 138 202 0 5 6 16 13 23 15 16 71
139 102 228 33 91 42 129 66 265 19 104 15 505 -5 611 -3 12 -7 39 -10 60 -4
22 -8 46 -11 54 -5 18 -15 67 -19 95 -4 27 -42 158 -62 210 -4 11 -8 25 -10
30 -1 6 -8 24 -15 40 -6 17 -13 35 -15 40 -9 39 -98 222 -151 313 -24 41 -43
75 -43 77 0 8 -86 133 -144 208 -33 44 -70 91 -81 106 -11 14 -28 35 -38 46
-16 18 -113 160 -144 210 -32 54 -93 175 -87 175 4 0 1 6 -5 14 -13 15 -67
157 -86 226 -28 100 -52 220 -62 320 -14 123 -5 462 12 491 3 4 7 22 9 41 7
52 45 194 76 284 31 89 118 277 132 282 4 2 8 8 8 13 0 9 59 110 70 119 3 3
17 21 30 40 13 19 29 40 35 47 5 6 21 26 35 45 41 54 210 222 275 272 33 25
66 51 73 57 50 41 246 151 362 202 62 27 244 88 276 91 11 2 25 6 31 9 5 3 32
9 59 13 27 3 58 8 69 11 54 12 189 18 351 17 229 -2 263 -5 474 -49 8 -2 15
-4 15 -5 0 -1 11 -4 25 -6 174 -32 541 -223 709 -369 63 -55 185 -179 231
-235 25 -30 47 -57 50 -60 4 -3 16 -22 29 -43 13 -21 28 -43 34 -50 13 -14 31
-43 56 -92 9 -16 18 -32 21 -35 18 -17 136 -281 145 -324 2 -12 9 -37 15 -56
26 -80 55 -233 66 -345 3 -33 7 -61 9 -63 2 -2 -1 -17 -5 -33 -5 -16 -6 -29
-2 -29 13 0 0 -266 -17 -342 -5 -24 -12 -59 -15 -78 -9 -56 -51 -199 -81 -275
-35 -90 -126 -279 -137 -283 -4 -2 -8 -8 -8 -13 0 -18 -150 -226 -232 -319
-39 -46 -188 -272 -211 -321 -12 -27 -25 -49 -29 -49 -5 0 -8 -4 -8 -10 0 -5
-19 -49 -43 -97 -37 -77 -72 -162 -123 -308 -17 -48 -53 -188 -59 -230 -6 -43
-14 -86 -19 -112 -3 -12 -8 -51 -11 -86 -21 -200 -20 -409 1 -552 59 -407 296
-780 639 -1007 70 -46 195 -113 250 -134 17 -6 44 -17 62 -24 18 -7 35 -12 38
-11 3 1 19 -6 35 -14 17 -9 30 -14 30 -11 0 2 16 0 36 -6 20 -5 45 -12 55 -14
11 -2 29 -6 42 -9 149 -33 489 -20 637 25 19 6 42 13 50 15 28 6 155 56 210
82 65 31 231 130 245 146 6 7 28 25 50 42 100 74 261 259 330 380 60 105 141
286 151 338 2 11 8 34 13 51 17 54 33 147 38 215 2 36 6 837 9 1780 l5 1715
24 51 c34 71 84 126 146 160 75 41 188 47 273 15 102 -39 181 -135 205 -251
l11 -55 208 1 207 0 -1 40 c-1 47 -8 91 -23 159 -14 57 -89 216 -102 216 -5 0
-9 6 -9 14 0 21 -130 149 -199 196 -55 36 -201 106 -201 95 0 -2 -17 2 -37 9
-37 12 -89 18 -188 20 -45 1 -69 -2 -166 -19 -48 -9 -197 -68 -209 -84 -3 -3
-25 -19 -50 -35 -59 -38 -155 -137 -197 -203 -18 -29 -33 -54 -33 -57 0 -3
-11 -29 -25 -58 -59 -127 -57 -96 -61 -1033 -2 -473 -4 -862 -5 -865 -1 -3 -1
-8 0 -12 0 -5 0 -387 0 -463 0 -11 0 -254 0 -540 0 -562 -4 -767 -13 -830 -23
-143 -113 -343 -208 -461 -76 -94 -208 -207 -303 -259 -27 -15 -54 -30 -60
-33 -5 -4 -12 -7 -15 -7 -3 -1 -22 -9 -43 -18 -47 -20 -159 -56 -196 -61 -242
-39 -445 -15 -639 75 -196 90 -389 269 -474 439 -13 25 -26 47 -30 48 -5 2 -8
11 -8 21 0 9 -4 21 -9 26 -19 20 -67 183 -77 263 -7 58 -11 392 -4 392 3 0 5
17 6 38 0 46 9 102 28 185 8 36 17 76 20 88 7 40 48 162 68 206 11 24 21 49
22 55 4 29 141 289 169 323 4 6 30 42 57 80 48 67 83 114 105 139 68 76 213
292 270 402 56 107 127 274 117 274 -4 0 -2 4 3 8 16 10 93 278 101 347 1 11
4 29 7 40 3 11 8 41 11 68 3 26 9 68 13 95 13 96 5 456 -13 555 -4 23 -8 49
-9 57 -6 68 -79 329 -125 445 -44 110 -151 324 -177 352 -6 7 -15 22 -18 33
-3 11 -11 20 -16 20 -5 0 -9 5 -9 10 0 9 -35 65 -50 80 -3 3 -25 32 -50 65
-115 152 -297 328 -455 440 -120 86 -206 139 -300 185 -27 14 -51 28 -53 33
-2 4 -9 7 -17 7 -7 0 -39 12 -71 27 -33 15 -62 28 -66 29 -5 1 -10 3 -13 4 -3
1 -8 3 -12 5 -5 1 -17 5 -28 9 -46 18 -191 63 -225 71 -54 12 -171 35 -205 40
-23 3 -52 8 -65 11 -25 6 -576 14 -582 9z"/>
<path d="M5105 7610 c-80 -18 -175 -93 -210 -166 -27 -57 -31 -163 -9 -225 23
-63 101 -149 159 -174 54 -23 165 -28 218 -9 54 19 124 75 153 121 118 191 -8
442 -230 456 -28 2 -64 1 -81 -3z"/>
<path d="M6785 7607 c-8 -4 -15 -5 -15 -2 0 14 -103 -49 -138 -84 -53 -53 -74
-103 -80 -183 -8 -123 52 -232 158 -285 47 -23 55 -25 127 -28 208 -9 351 182
290 388 -10 31 -21 57 -25 57 -4 0 -14 13 -23 29 -20 34 -89 83 -142 101 -46
14 -132 19 -152 7z"/>
<path d="M645 6653 c-89 -17 -236 -68 -243 -85 -2 -4 -9 -8 -16 -8 -35 0 -214
-163 -255 -231 -80 -132 -113 -227 -126 -357 l-7 -62 211 0 c116 0 211 3 212
8 0 4 2 14 4 22 2 8 7 27 10 42 7 36 22 75 34 91 97 122 183 168 302 161 111
-6 193 -56 267 -161 13 -18 20 -33 16 -33 -3 0 -1 -7 6 -15 9 -11 14 -66 17
-173 5 -220 5 -273 -1 -279 -2 -3 -1 -16 4 -28 5 -14 5 -37 0 -54 -4 -16 -6
-32 -3 -35 3 -2 7 -231 9 -508 2 -277 6 -519 8 -538 2 -19 7 -51 10 -70 3 -19
8 -53 11 -75 5 -33 40 -203 49 -240 16 -61 29 -105 39 -130 6 -16 12 -34 13
-40 10 -58 125 -315 195 -436 23 -41 47 -83 53 -94 15 -27 49 -79 56 -85 3 -3
25 -34 49 -70 25 -36 48 -67 51 -70 3 -3 24 -27 45 -55 49 -62 271 -284 344
-345 59 -50 144 -111 236 -171 33 -21 65 -42 71 -46 23 -17 254 -136 264 -136
3 0 26 -11 51 -24 26 -13 50 -23 54 -23 4 0 21 -6 38 -14 40 -18 138 -51 197
-66 25 -6 52 -14 60 -17 18 -7 13 -6 135 -31 55 -12 120 -24 145 -28 25 -3 59
-8 75 -11 17 -2 174 -6 350 -8 308 -3 357 0 550 30 128 21 449 117 503 151 12
8 22 12 22 9 0 -12 255 125 364 195 46 30 144 100 157 112 8 7 32 26 54 42 59
44 272 259 342 346 112 139 214 298 295 462 22 46 35 54 43 28 11 -34 128
-242 182 -321 49 -73 149 -202 202 -262 22 -25 86 -87 195 -192 45 -43 166
-135 257 -195 51 -35 105 -70 119 -80 73 -49 400 -197 475 -215 6 -1 17 -4 25
-8 8 -3 60 -17 115 -31 111 -29 147 -36 260 -52 22 -3 63 -8 90 -12 107 -15
710 -6 790 11 11 3 40 8 65 12 56 9 78 13 110 20 14 3 36 8 50 10 78 12 392
120 479 165 23 11 41 17 41 13 0 -5 4 -3 8 3 4 6 32 23 62 38 30 15 73 38 95
51 22 13 47 27 55 31 28 14 175 118 260 183 76 59 291 265 362 349 59 68 177
231 223 307 39 65 167 305 172 325 5 17 26 69 39 94 8 16 14 37 14 46 0 9 3
20 8 24 4 4 7 11 7 14 0 4 8 27 17 52 24 64 65 224 82 327 15 87 19 109 32
208 3 28 8 286 9 575 2 289 4 548 4 575 1 28 1 77 1 110 0 33 1 79 3 103 1 23
-2 42 -6 42 -5 0 -5 5 -1 12 10 16 11 69 1 75 -4 2 -4 9 -1 15 4 6 8 27 9 48
1 20 8 47 16 61 7 13 13 27 14 32 0 4 19 29 43 56 95 111 255 146 390 85 45
-21 152 -129 152 -154 0 -10 4 -21 9 -24 5 -3 12 -23 15 -43 14 -80 -6 -73
227 -73 l210 0 -6 58 c-6 73 -24 149 -42 185 -7 15 -11 27 -8 27 10 0 -53 116
-90 166 -91 121 -164 179 -316 255 -14 6 -42 15 -114 35 -49 14 -84 17 -170
17 -120 0 -160 -5 -245 -33 -140 -47 -261 -133 -366 -261 -29 -35 -96 -159
-87 -159 5 0 3 -4 -2 -8 -9 -5 -28 -55 -35 -92 -26 -119 -27 -163 -29 -847 -3
-771 -3 -782 -14 -800 -4 -6 -3 -14 2 -18 6 -3 6 -16 1 -33 -5 -15 -11 -47
-14 -72 -11 -94 -77 -345 -105 -397 -5 -10 -10 -21 -10 -25 -8 -37 -105 -242
-158 -333 -17 -29 -97 -148 -114 -169 -108 -137 -149 -184 -234 -266 -164
-159 -381 -309 -580 -400 -115 -53 -347 -133 -420 -145 -17 -3 -50 -10 -75
-15 -25 -6 -63 -12 -85 -15 -22 -3 -65 -8 -95 -12 -70 -9 -547 -9 -620 0 -102
12 -220 35 -310 61 -30 9 -62 18 -70 20 -37 11 -130 46 -183 69 -31 14 -60 26
-62 26 -3 1 -35 17 -73 38 -225 123 -398 258 -556 433 -65 73 -186 234 -186
248 0 7 -4 12 -10 12 -5 0 -10 7 -10 15 0 8 -3 15 -7 15 -5 0 -13 10 -19 23
-6 12 -34 68 -63 124 -57 115 -109 243 -126 313 -2 8 -12 51 -23 95 -51 202
-53 229 -57 640 -2 182 -4 339 -4 350 -1 20 -7 20 -211 20 -136 0 -210 -3
-211 -10 0 -5 -2 -163 -4 -350 -1 -187 -6 -367 -9 -400 -7 -59 -13 -100 -16
-100 -1 0 -3 -13 -5 -30 -2 -16 -6 -40 -9 -52 -3 -13 -8 -33 -11 -45 -12 -59
-20 -88 -27 -108 -3 -8 -18 -51 -33 -95 -81 -238 -209 -456 -390 -663 -52 -59
-181 -182 -230 -219 -6 -5 -31 -25 -57 -45 -25 -21 -51 -38 -57 -38 -6 0 -11
-3 -11 -8 0 -4 -20 -18 -45 -32 -25 -14 -45 -28 -45 -32 0 -5 -5 -8 -10 -8 -6
0 -28 -11 -50 -25 -22 -14 -46 -25 -55 -25 -8 0 -15 -3 -15 -7 0 -22 -302
-138 -410 -159 -14 -3 -34 -8 -45 -11 -24 -8 -20 -7 -70 -16 -41 -8 -71 -12
-165 -24 -69 -9 -535 -9 -615 0 -59 6 -84 10 -155 24 -19 3 -42 7 -50 9 -8 2
-31 6 -50 10 -19 4 -37 8 -40 8 -8 2 -91 27 -155 48 -253 84 -547 254 -728
421 -119 109 -180 173 -259 272 -69 87 -158 219 -158 234 0 6 -4 11 -10 11 -5
0 -10 4 -10 10 0 5 -13 31 -28 57 -85 148 -192 443 -217 603 -8 48 -16 95 -21
120 -8 37 -14 356 -19 1030 -2 337 -8 625 -14 650 -11 50 -51 160 -73 200 -79
143 -210 265 -352 330 -46 21 -120 49 -131 50 -3 0 -6 0 -7 1 -27 9 -249 18
-283 12z"/>
</g>
</svg>
